<mxfile host="www.draw.io" modified="2019-11-07T01:23:34.863Z" agent="Mozilla/5.0 (Windows NT 10.0; Win64; x64) AppleWebKit/537.36 (KHTML, like Gecko) Chrome/71.0.3578.98 Safari/537.36" etag="V-vTuqUBY_6p83ej929N" version="12.2.0" type="github" pages="1">
  <diagram id="5o7MS-490ryG939fmwF6" name="Page-1">
    <mxGraphModel dx="1634" dy="1163" grid="0" gridSize="10" guides="1" tooltips="1" connect="1" arrows="1" fold="1" page="0" pageScale="1" pageWidth="827" pageHeight="1169" math="0" shadow="0">
      <root>
        <mxCell id="0"/>
        <mxCell id="1" parent="0"/>
        <mxCell id="yXxZEbCpEKuXq-ncFpqE-60" value="服务器VM，网段192.168.23.x" style="fillColor=#D4E1F5;strokeColor=none;dashed=0;verticalAlign=top;fontStyle=0;fontColor=#232F3D;fontSize=14;" vertex="1" parent="1">
          <mxGeometry x="800" y="246.5" width="240" height="330" as="geometry"/>
        </mxCell>
        <mxCell id="yXxZEbCpEKuXq-ncFpqE-61" value="终端多用户" style="fillColor=#E6D0DE;strokeColor=none;dashed=0;verticalAlign=top;fontStyle=0;fontColor=#232F3D;fontSize=14;" vertex="1" parent="1">
          <mxGeometry x="40" y="250" width="130" height="299" as="geometry"/>
        </mxCell>
        <mxCell id="yXxZEbCpEKuXq-ncFpqE-62" value="&lt;span style=&quot;font-size: 14px&quot;&gt;route&lt;/span&gt;" style="outlineConnect=0;dashed=0;verticalLabelPosition=bottom;verticalAlign=top;align=center;html=1;shape=mxgraph.aws3.internet_gateway;fillColor=#F58534;gradientColor=none;" vertex="1" parent="1">
          <mxGeometry x="255" y="359.5" width="69" height="71" as="geometry"/>
        </mxCell>
        <mxCell id="yXxZEbCpEKuXq-ncFpqE-63" value="&lt;font style=&quot;font-size: 14px&quot;&gt;Client 192.168.23.2&lt;/font&gt;" style="outlineConnect=0;fontColor=#232F3E;gradientColor=none;strokeColor=#232F3E;fillColor=#ffffff;dashed=0;verticalLabelPosition=bottom;verticalAlign=top;align=center;html=1;fontSize=12;fontStyle=0;aspect=fixed;shape=mxgraph.aws4.resourceIcon;resIcon=mxgraph.aws4.client;" vertex="1" parent="1">
          <mxGeometry x="75" y="279.5" width="60" height="60" as="geometry"/>
        </mxCell>
        <mxCell id="yXxZEbCpEKuXq-ncFpqE-64" value="&lt;font style=&quot;font-size: 14px&quot;&gt;Client 192.168.23.3&amp;nbsp;&lt;/font&gt;" style="outlineConnect=0;fontColor=#232F3E;gradientColor=none;strokeColor=#232F3E;fillColor=#ffffff;dashed=0;verticalLabelPosition=bottom;verticalAlign=top;align=center;html=1;fontSize=12;fontStyle=0;aspect=fixed;shape=mxgraph.aws4.resourceIcon;resIcon=mxgraph.aws4.client;" vertex="1" parent="1">
          <mxGeometry x="75" y="369.5" width="60" height="60" as="geometry"/>
        </mxCell>
        <mxCell id="yXxZEbCpEKuXq-ncFpqE-65" value="&lt;font style=&quot;font-size: 14px&quot;&gt;Client 192.168.23.4&lt;/font&gt;" style="outlineConnect=0;fontColor=#232F3E;gradientColor=none;strokeColor=#232F3E;fillColor=#ffffff;dashed=0;verticalLabelPosition=bottom;verticalAlign=top;align=center;html=1;fontSize=12;fontStyle=0;aspect=fixed;shape=mxgraph.aws4.resourceIcon;resIcon=mxgraph.aws4.client;" vertex="1" parent="1">
          <mxGeometry x="75" y="464" width="60" height="60" as="geometry"/>
        </mxCell>
        <mxCell id="yXxZEbCpEKuXq-ncFpqE-66" value="VM" style="points=[[0,0],[0.25,0],[0.5,0],[0.75,0],[1,0],[1,0.25],[1,0.5],[1,0.75],[1,1],[0.75,1],[0.5,1],[0.25,1],[0,1],[0,0.75],[0,0.5],[0,0.25]];outlineConnect=0;gradientColor=none;html=1;whiteSpace=wrap;fontSize=12;fontStyle=0;shape=mxgraph.aws4.group;grIcon=mxgraph.aws4.group_vpc;strokeColor=#248814;fillColor=none;verticalAlign=top;align=left;spacingLeft=30;fontColor=#AAB7B8;dashed=0;" vertex="1" parent="1">
          <mxGeometry x="835" y="278" width="60" height="47" as="geometry"/>
        </mxCell>
        <mxCell id="yXxZEbCpEKuXq-ncFpqE-67" value="VM" style="points=[[0,0],[0.25,0],[0.5,0],[0.75,0],[1,0],[1,0.25],[1,0.5],[1,0.75],[1,1],[0.75,1],[0.5,1],[0.25,1],[0,1],[0,0.75],[0,0.5],[0,0.25]];outlineConnect=0;gradientColor=none;html=1;whiteSpace=wrap;fontSize=12;fontStyle=0;shape=mxgraph.aws4.group;grIcon=mxgraph.aws4.group_vpc;strokeColor=#248814;fillColor=none;verticalAlign=top;align=left;spacingLeft=30;fontColor=#AAB7B8;dashed=0;" vertex="1" parent="1">
          <mxGeometry x="835" y="338" width="60" height="47" as="geometry"/>
        </mxCell>
        <mxCell id="yXxZEbCpEKuXq-ncFpqE-68" value="VM" style="points=[[0,0],[0.25,0],[0.5,0],[0.75,0],[1,0],[1,0.25],[1,0.5],[1,0.75],[1,1],[0.75,1],[0.5,1],[0.25,1],[0,1],[0,0.75],[0,0.5],[0,0.25]];outlineConnect=0;gradientColor=none;html=1;whiteSpace=wrap;fontSize=12;fontStyle=0;shape=mxgraph.aws4.group;grIcon=mxgraph.aws4.group_vpc;strokeColor=#248814;fillColor=none;verticalAlign=top;align=left;spacingLeft=30;fontColor=#AAB7B8;dashed=0;" vertex="1" parent="1">
          <mxGeometry x="835" y="401" width="60" height="47" as="geometry"/>
        </mxCell>
        <mxCell id="yXxZEbCpEKuXq-ncFpqE-69" value="VM" style="points=[[0,0],[0.25,0],[0.5,0],[0.75,0],[1,0],[1,0.25],[1,0.5],[1,0.75],[1,1],[0.75,1],[0.5,1],[0.25,1],[0,1],[0,0.75],[0,0.5],[0,0.25]];outlineConnect=0;gradientColor=none;html=1;whiteSpace=wrap;fontSize=12;fontStyle=0;shape=mxgraph.aws4.group;grIcon=mxgraph.aws4.group_vpc;strokeColor=#248814;fillColor=none;verticalAlign=top;align=left;spacingLeft=30;fontColor=#AAB7B8;dashed=0;" vertex="1" parent="1">
          <mxGeometry x="835" y="458.5" width="60" height="47" as="geometry"/>
        </mxCell>
        <mxCell id="yXxZEbCpEKuXq-ncFpqE-70" value="VM" style="points=[[0,0],[0.25,0],[0.5,0],[0.75,0],[1,0],[1,0.25],[1,0.5],[1,0.75],[1,1],[0.75,1],[0.5,1],[0.25,1],[0,1],[0,0.75],[0,0.5],[0,0.25]];outlineConnect=0;gradientColor=none;html=1;whiteSpace=wrap;fontSize=12;fontStyle=0;shape=mxgraph.aws4.group;grIcon=mxgraph.aws4.group_vpc;strokeColor=#248814;fillColor=none;verticalAlign=top;align=left;spacingLeft=30;fontColor=#AAB7B8;dashed=0;" vertex="1" parent="1">
          <mxGeometry x="835" y="516" width="60" height="47" as="geometry"/>
        </mxCell>
        <mxCell id="yXxZEbCpEKuXq-ncFpqE-71" value="交换机" style="outlineConnect=0;dashed=0;verticalLabelPosition=bottom;verticalAlign=top;align=center;html=1;shape=mxgraph.aws3.application_load_balancer;fillColor=#F58536;gradientColor=none;" vertex="1" parent="1">
          <mxGeometry x="680" y="372" width="69" height="72" as="geometry"/>
        </mxCell>
        <mxCell id="yXxZEbCpEKuXq-ncFpqE-72" value="VM" style="points=[[0,0],[0.25,0],[0.5,0],[0.75,0],[1,0],[1,0.25],[1,0.5],[1,0.75],[1,1],[0.75,1],[0.5,1],[0.25,1],[0,1],[0,0.75],[0,0.5],[0,0.25]];outlineConnect=0;gradientColor=none;html=1;whiteSpace=wrap;fontSize=12;fontStyle=0;shape=mxgraph.aws4.group;grIcon=mxgraph.aws4.group_vpc;strokeColor=#248814;fillColor=none;verticalAlign=top;align=left;spacingLeft=30;fontColor=#AAB7B8;dashed=0;" vertex="1" parent="1">
          <mxGeometry x="950" y="275" width="60" height="47" as="geometry"/>
        </mxCell>
        <mxCell id="yXxZEbCpEKuXq-ncFpqE-73" value="VM" style="points=[[0,0],[0.25,0],[0.5,0],[0.75,0],[1,0],[1,0.25],[1,0.5],[1,0.75],[1,1],[0.75,1],[0.5,1],[0.25,1],[0,1],[0,0.75],[0,0.5],[0,0.25]];outlineConnect=0;gradientColor=none;html=1;whiteSpace=wrap;fontSize=12;fontStyle=0;shape=mxgraph.aws4.group;grIcon=mxgraph.aws4.group_vpc;strokeColor=#248814;fillColor=none;verticalAlign=top;align=left;spacingLeft=30;fontColor=#AAB7B8;dashed=0;" vertex="1" parent="1">
          <mxGeometry x="950" y="335" width="60" height="47" as="geometry"/>
        </mxCell>
        <mxCell id="yXxZEbCpEKuXq-ncFpqE-74" value="VM" style="points=[[0,0],[0.25,0],[0.5,0],[0.75,0],[1,0],[1,0.25],[1,0.5],[1,0.75],[1,1],[0.75,1],[0.5,1],[0.25,1],[0,1],[0,0.75],[0,0.5],[0,0.25]];outlineConnect=0;gradientColor=none;html=1;whiteSpace=wrap;fontSize=12;fontStyle=0;shape=mxgraph.aws4.group;grIcon=mxgraph.aws4.group_vpc;strokeColor=#248814;fillColor=none;verticalAlign=top;align=left;spacingLeft=30;fontColor=#AAB7B8;dashed=0;" vertex="1" parent="1">
          <mxGeometry x="950" y="395" width="60" height="47" as="geometry"/>
        </mxCell>
        <mxCell id="yXxZEbCpEKuXq-ncFpqE-75" value="VM" style="points=[[0,0],[0.25,0],[0.5,0],[0.75,0],[1,0],[1,0.25],[1,0.5],[1,0.75],[1,1],[0.75,1],[0.5,1],[0.25,1],[0,1],[0,0.75],[0,0.5],[0,0.25]];outlineConnect=0;gradientColor=none;html=1;whiteSpace=wrap;fontSize=12;fontStyle=0;shape=mxgraph.aws4.group;grIcon=mxgraph.aws4.group_vpc;strokeColor=#248814;fillColor=none;verticalAlign=top;align=left;spacingLeft=30;fontColor=#AAB7B8;dashed=0;" vertex="1" parent="1">
          <mxGeometry x="950" y="455" width="60" height="47" as="geometry"/>
        </mxCell>
        <mxCell id="yXxZEbCpEKuXq-ncFpqE-76" value="VM" style="points=[[0,0],[0.25,0],[0.5,0],[0.75,0],[1,0],[1,0.25],[1,0.5],[1,0.75],[1,1],[0.75,1],[0.5,1],[0.25,1],[0,1],[0,0.75],[0,0.5],[0,0.25]];outlineConnect=0;gradientColor=none;html=1;whiteSpace=wrap;fontSize=12;fontStyle=0;shape=mxgraph.aws4.group;grIcon=mxgraph.aws4.group_vpc;strokeColor=#248814;fillColor=none;verticalAlign=top;align=left;spacingLeft=30;fontColor=#AAB7B8;dashed=0;" vertex="1" parent="1">
          <mxGeometry x="950" y="515" width="60" height="47" as="geometry"/>
        </mxCell>
        <mxCell id="yXxZEbCpEKuXq-ncFpqE-77" value="" style="endArrow=classic;startArrow=classic;html=1;exitX=1;exitY=0.5;exitDx=0;exitDy=0;exitPerimeter=0;" edge="1" parent="1" source="yXxZEbCpEKuXq-ncFpqE-71" target="yXxZEbCpEKuXq-ncFpqE-60">
          <mxGeometry width="50" height="50" relative="1" as="geometry">
            <mxPoint x="-250" y="647.5" as="sourcePoint"/>
            <mxPoint x="-200" y="597.5" as="targetPoint"/>
          </mxGeometry>
        </mxCell>
        <mxCell id="yXxZEbCpEKuXq-ncFpqE-78" value="" style="endArrow=classic;startArrow=classic;html=1;" edge="1" parent="1">
          <mxGeometry width="50" height="50" relative="1" as="geometry">
            <mxPoint x="170" y="396" as="sourcePoint"/>
            <mxPoint x="251" y="396" as="targetPoint"/>
          </mxGeometry>
        </mxCell>
        <mxCell id="yXxZEbCpEKuXq-ncFpqE-79" value="&lt;font style=&quot;font-size: 14px&quot;&gt;主LB-MANAGE&lt;/font&gt;" style="outlineConnect=0;gradientColor=none;html=1;whiteSpace=wrap;fontSize=12;fontStyle=0;shape=mxgraph.aws4.groupCenter;grIcon=mxgraph.aws4.group_elastic_load_balancing;grStroke=1;strokeColor=#007DBC;fillColor=none;verticalAlign=top;align=center;fontColor=#007DBC;dashed=0;spacingTop=25;" vertex="1" parent="1">
          <mxGeometry x="453.5" y="70.5" width="130" height="55" as="geometry"/>
        </mxCell>
        <mxCell id="yXxZEbCpEKuXq-ncFpqE-80" value="&lt;font style=&quot;font-size: 14px&quot;&gt;keepalived&lt;/font&gt;" style="outlineConnect=0;gradientColor=none;html=1;whiteSpace=wrap;fontSize=12;fontStyle=0;shape=mxgraph.aws4.groupCenter;grIcon=mxgraph.aws4.group_elastic_load_balancing;grStroke=1;strokeColor=#007DBC;fillColor=none;verticalAlign=top;align=center;fontColor=#007DBC;dashed=0;spacingTop=25;" vertex="1" parent="1">
          <mxGeometry x="453.5" y="180.5" width="130" height="55" as="geometry"/>
        </mxCell>
        <mxCell id="yXxZEbCpEKuXq-ncFpqE-81" value="&lt;font style=&quot;font-size: 14px&quot;&gt;EST PROXY&lt;/font&gt;" style="outlineConnect=0;gradientColor=none;html=1;whiteSpace=wrap;fontSize=12;fontStyle=0;shape=mxgraph.aws4.groupCenter;grIcon=mxgraph.aws4.group_elastic_load_balancing;grStroke=1;strokeColor=#007DBC;fillColor=none;verticalAlign=top;align=center;fontColor=#007DBC;dashed=0;spacingTop=25;" vertex="1" parent="1">
          <mxGeometry x="453.5" y="125.5" width="130" height="55" as="geometry"/>
        </mxCell>
        <mxCell id="yXxZEbCpEKuXq-ncFpqE-82" value="&lt;font style=&quot;font-size: 14px&quot;&gt;备LB-MANAGE&lt;/font&gt;" style="outlineConnect=0;gradientColor=none;html=1;whiteSpace=wrap;fontSize=12;fontStyle=0;shape=mxgraph.aws4.groupCenter;grIcon=mxgraph.aws4.group_elastic_load_balancing;grStroke=1;strokeColor=#007DBC;fillColor=none;verticalAlign=top;align=center;fontColor=#007DBC;dashed=0;spacingTop=25;" vertex="1" parent="1">
          <mxGeometry x="453.5" y="314" width="130" height="55" as="geometry"/>
        </mxCell>
        <mxCell id="yXxZEbCpEKuXq-ncFpqE-83" value="&lt;font style=&quot;font-size: 18px&quot; color=&quot;#000000&quot;&gt;服务器&lt;/font&gt;" style="outlineConnect=0;gradientColor=none;html=1;whiteSpace=wrap;fontSize=12;fontStyle=0;shape=mxgraph.aws4.group;grIcon=mxgraph.aws4.group_aws_cloud;strokeColor=#000000;fillColor=none;verticalAlign=top;align=left;spacingLeft=30;fontColor=#AAB7B8;strokeWidth=1;" vertex="1" parent="1">
          <mxGeometry x="443.5" y="40" width="150" height="210" as="geometry"/>
        </mxCell>
        <mxCell id="yXxZEbCpEKuXq-ncFpqE-84" value="&lt;font style=&quot;font-size: 14px&quot;&gt;keepalived&lt;/font&gt;" style="outlineConnect=0;gradientColor=none;html=1;whiteSpace=wrap;fontSize=12;fontStyle=0;shape=mxgraph.aws4.groupCenter;grIcon=mxgraph.aws4.group_elastic_load_balancing;grStroke=1;strokeColor=#007DBC;fillColor=none;verticalAlign=top;align=center;fontColor=#007DBC;dashed=0;spacingTop=25;" vertex="1" parent="1">
          <mxGeometry x="453.5" y="423.5" width="130" height="55" as="geometry"/>
        </mxCell>
        <mxCell id="yXxZEbCpEKuXq-ncFpqE-85" value="&lt;font style=&quot;font-size: 14px&quot;&gt;EST PROXY&lt;/font&gt;" style="outlineConnect=0;gradientColor=none;html=1;whiteSpace=wrap;fontSize=12;fontStyle=0;shape=mxgraph.aws4.groupCenter;grIcon=mxgraph.aws4.group_elastic_load_balancing;grStroke=1;strokeColor=#007DBC;fillColor=none;verticalAlign=top;align=center;fontColor=#007DBC;dashed=0;spacingTop=25;" vertex="1" parent="1">
          <mxGeometry x="453.5" y="369" width="130" height="55" as="geometry"/>
        </mxCell>
        <mxCell id="yXxZEbCpEKuXq-ncFpqE-86" value="&lt;font style=&quot;font-size: 18px&quot; color=&quot;#000000&quot;&gt;服务器&lt;/font&gt;" style="outlineConnect=0;gradientColor=none;html=1;whiteSpace=wrap;fontSize=12;fontStyle=0;shape=mxgraph.aws4.group;grIcon=mxgraph.aws4.group_aws_cloud;strokeColor=#000000;fillColor=none;verticalAlign=top;align=left;spacingLeft=30;fontColor=#AAB7B8;strokeWidth=1;" vertex="1" parent="1">
          <mxGeometry x="443.5" y="280" width="150" height="210" as="geometry"/>
        </mxCell>
        <mxCell id="yXxZEbCpEKuXq-ncFpqE-87" value="&lt;font style=&quot;font-size: 14px&quot;&gt;备LB-MANAGE&lt;/font&gt;" style="outlineConnect=0;gradientColor=none;html=1;whiteSpace=wrap;fontSize=12;fontStyle=0;shape=mxgraph.aws4.groupCenter;grIcon=mxgraph.aws4.group_elastic_load_balancing;grStroke=1;strokeColor=#007DBC;fillColor=none;verticalAlign=top;align=center;fontColor=#007DBC;dashed=0;spacingTop=25;" vertex="1" parent="1">
          <mxGeometry x="453.5" y="549" width="130" height="55" as="geometry"/>
        </mxCell>
        <mxCell id="yXxZEbCpEKuXq-ncFpqE-88" value="&lt;font style=&quot;font-size: 18px&quot; color=&quot;#000000&quot;&gt;服务器&lt;/font&gt;" style="outlineConnect=0;gradientColor=none;html=1;whiteSpace=wrap;fontSize=12;fontStyle=0;shape=mxgraph.aws4.group;grIcon=mxgraph.aws4.group_aws_cloud;strokeColor=#000000;fillColor=none;verticalAlign=top;align=left;spacingLeft=30;fontColor=#AAB7B8;" vertex="1" parent="1">
          <mxGeometry x="443.5" y="515" width="150" height="210" as="geometry"/>
        </mxCell>
        <mxCell id="yXxZEbCpEKuXq-ncFpqE-89" value="keepalived" style="outlineConnect=0;gradientColor=none;html=1;whiteSpace=wrap;fontSize=12;fontStyle=0;shape=mxgraph.aws4.groupCenter;grIcon=mxgraph.aws4.group_elastic_load_balancing;grStroke=1;strokeColor=#007DBC;fillColor=none;verticalAlign=top;align=center;fontColor=#007DBC;dashed=0;spacingTop=25;" vertex="1" parent="1">
          <mxGeometry x="453.5" y="659" width="130" height="55" as="geometry"/>
        </mxCell>
        <mxCell id="yXxZEbCpEKuXq-ncFpqE-90" value="&lt;font style=&quot;font-size: 14px&quot;&gt;EST PROXY&lt;/font&gt;" style="outlineConnect=0;gradientColor=none;html=1;whiteSpace=wrap;fontSize=12;fontStyle=0;shape=mxgraph.aws4.groupCenter;grIcon=mxgraph.aws4.group_elastic_load_balancing;grStroke=1;strokeColor=#007DBC;fillColor=none;verticalAlign=top;align=center;fontColor=#007DBC;dashed=0;spacingTop=25;" vertex="1" parent="1">
          <mxGeometry x="453.5" y="604" width="130" height="55" as="geometry"/>
        </mxCell>
        <mxCell id="yXxZEbCpEKuXq-ncFpqE-91" value="" style="endArrow=classic;startArrow=classic;html=1;" edge="1" parent="1" target="yXxZEbCpEKuXq-ncFpqE-84">
          <mxGeometry width="50" height="50" relative="1" as="geometry">
            <mxPoint x="584" y="208" as="sourcePoint"/>
            <mxPoint x="670" y="206" as="targetPoint"/>
            <Array as="points">
              <mxPoint x="610" y="208"/>
              <mxPoint x="610" y="452"/>
            </Array>
          </mxGeometry>
        </mxCell>
        <mxCell id="yXxZEbCpEKuXq-ncFpqE-92" value="" style="endArrow=classic;startArrow=classic;html=1;" edge="1" parent="1" target="yXxZEbCpEKuXq-ncFpqE-89">
          <mxGeometry width="50" height="50" relative="1" as="geometry">
            <mxPoint x="584" y="206" as="sourcePoint"/>
            <mxPoint x="700" y="256" as="targetPoint"/>
            <Array as="points">
              <mxPoint x="630" y="206"/>
              <mxPoint x="630" y="687"/>
            </Array>
          </mxGeometry>
        </mxCell>
        <mxCell id="yXxZEbCpEKuXq-ncFpqE-93" value="" style="endArrow=classic;startArrow=classic;html=1;entryX=0;entryY=0.5;entryDx=0;entryDy=0;entryPerimeter=0;" edge="1" parent="1" target="yXxZEbCpEKuXq-ncFpqE-71">
          <mxGeometry width="50" height="50" relative="1" as="geometry">
            <mxPoint x="584" y="408" as="sourcePoint"/>
            <mxPoint x="654.2106781186548" y="396.5" as="targetPoint"/>
          </mxGeometry>
        </mxCell>
        <mxCell id="yXxZEbCpEKuXq-ncFpqE-94" value="" style="endArrow=classic;startArrow=classic;html=1;" edge="1" parent="1" source="yXxZEbCpEKuXq-ncFpqE-84" target="yXxZEbCpEKuXq-ncFpqE-89">
          <mxGeometry width="50" height="50" relative="1" as="geometry">
            <mxPoint x="583.5" y="501" as="sourcePoint"/>
            <mxPoint x="654.2106781186548" y="451" as="targetPoint"/>
            <Array as="points">
              <mxPoint x="610" y="451"/>
              <mxPoint x="610" y="687"/>
            </Array>
          </mxGeometry>
        </mxCell>
        <mxCell id="yXxZEbCpEKuXq-ncFpqE-96" value="" style="endArrow=classic;startArrow=classic;html=1;fontSize=14;" edge="1" parent="1" source="yXxZEbCpEKuXq-ncFpqE-90" target="yXxZEbCpEKuXq-ncFpqE-71">
          <mxGeometry width="50" height="50" relative="1" as="geometry">
            <mxPoint x="580" y="676" as="sourcePoint"/>
            <mxPoint x="630" y="626" as="targetPoint"/>
            <Array as="points">
              <mxPoint x="715" y="632"/>
            </Array>
          </mxGeometry>
        </mxCell>
        <mxCell id="yXxZEbCpEKuXq-ncFpqE-97" value="" style="endArrow=classic;startArrow=classic;html=1;fontSize=14;" edge="1" parent="1" source="yXxZEbCpEKuXq-ncFpqE-81" target="yXxZEbCpEKuXq-ncFpqE-71">
          <mxGeometry width="50" height="50" relative="1" as="geometry">
            <mxPoint x="710" y="276" as="sourcePoint"/>
            <mxPoint x="760" y="226" as="targetPoint"/>
            <Array as="points">
              <mxPoint x="715" y="156"/>
            </Array>
          </mxGeometry>
        </mxCell>
        <mxCell id="yXxZEbCpEKuXq-ncFpqE-98" value="" style="endArrow=classic;startArrow=classic;html=1;fontSize=14;exitX=1;exitY=0.5;exitDx=0;exitDy=0;exitPerimeter=0;" edge="1" parent="1" source="yXxZEbCpEKuXq-ncFpqE-62" target="yXxZEbCpEKuXq-ncFpqE-85">
          <mxGeometry width="50" height="50" relative="1" as="geometry">
            <mxPoint x="324" y="407" as="sourcePoint"/>
            <mxPoint x="380" y="406" as="targetPoint"/>
          </mxGeometry>
        </mxCell>
        <mxCell id="yXxZEbCpEKuXq-ncFpqE-99" value="" style="endArrow=classic;startArrow=classic;html=1;fontSize=14;" edge="1" parent="1" target="yXxZEbCpEKuXq-ncFpqE-81">
          <mxGeometry width="50" height="50" relative="1" as="geometry">
            <mxPoint x="290" y="356" as="sourcePoint"/>
            <mxPoint x="320" y="306" as="targetPoint"/>
            <Array as="points">
              <mxPoint x="290" y="153"/>
            </Array>
          </mxGeometry>
        </mxCell>
        <mxCell id="yXxZEbCpEKuXq-ncFpqE-100" value="" style="endArrow=classic;startArrow=classic;html=1;fontSize=14;exitX=0.5;exitY=1;exitDx=0;exitDy=0;exitPerimeter=0;" edge="1" parent="1" source="yXxZEbCpEKuXq-ncFpqE-62" target="yXxZEbCpEKuXq-ncFpqE-90">
          <mxGeometry width="50" height="50" relative="1" as="geometry">
            <mxPoint x="290" y="556" as="sourcePoint"/>
            <mxPoint x="340" y="506" as="targetPoint"/>
            <Array as="points">
              <mxPoint x="290" y="632"/>
            </Array>
          </mxGeometry>
        </mxCell>
        <mxCell id="yXxZEbCpEKuXq-ncFpqE-101" value="&lt;font style=&quot;font-size: 18px&quot; color=&quot;#000000&quot;&gt;RCDC服务器&lt;/font&gt;" style="outlineConnect=0;gradientColor=none;html=1;whiteSpace=wrap;fontSize=12;fontStyle=0;shape=mxgraph.aws4.group;grIcon=mxgraph.aws4.group_aws_cloud;strokeColor=#000000;fillColor=none;verticalAlign=top;align=left;spacingLeft=30;fontColor=#AAB7B8;strokeWidth=1;" vertex="1" parent="1">
          <mxGeometry x="444" y="-51" width="150" height="61" as="geometry"/>
        </mxCell>
        <mxCell id="yXxZEbCpEKuXq-ncFpqE-102" value="" style="endArrow=classic;startArrow=classic;html=1;exitX=0.5;exitY=0;exitDx=0;exitDy=0;exitPerimeter=0;" edge="1" parent="1" source="yXxZEbCpEKuXq-ncFpqE-62" target="yXxZEbCpEKuXq-ncFpqE-101">
          <mxGeometry width="50" height="50" relative="1" as="geometry">
            <mxPoint x="40" y="800" as="sourcePoint"/>
            <mxPoint x="90" y="750" as="targetPoint"/>
            <Array as="points">
              <mxPoint x="290" y="-35"/>
            </Array>
          </mxGeometry>
        </mxCell>
        <mxCell id="yXxZEbCpEKuXq-ncFpqE-103" value="&lt;span style=&quot;font-size: 14px&quot;&gt;账户认证、获取虚机信息及代理信息&lt;/span&gt;" style="text;html=1;resizable=0;points=[];align=center;verticalAlign=middle;labelBackgroundColor=#ffffff;" vertex="1" connectable="0" parent="yXxZEbCpEKuXq-ncFpqE-102">
          <mxGeometry x="0.4398" y="-30" relative="1" as="geometry">
            <mxPoint x="30" y="-30" as="offset"/>
          </mxGeometry>
        </mxCell>
        <mxCell id="yXxZEbCpEKuXq-ncFpqE-104" value="" style="endArrow=classic;startArrow=classic;html=1;" edge="1" parent="1" source="yXxZEbCpEKuXq-ncFpqE-101" target="yXxZEbCpEKuXq-ncFpqE-79">
          <mxGeometry width="50" height="50" relative="1" as="geometry">
            <mxPoint x="590" y="10" as="sourcePoint"/>
            <mxPoint x="710" y="100" as="targetPoint"/>
            <Array as="points">
              <mxPoint x="630" y="-20"/>
              <mxPoint x="630" y="100"/>
            </Array>
          </mxGeometry>
        </mxCell>
        <mxCell id="yXxZEbCpEKuXq-ncFpqE-106" value="&lt;span style=&quot;font-size: 14px&quot;&gt;获取代理信息&lt;/span&gt;" style="text;html=1;resizable=0;points=[];align=center;verticalAlign=middle;labelBackgroundColor=#ffffff;" vertex="1" connectable="0" parent="yXxZEbCpEKuXq-ncFpqE-104">
          <mxGeometry x="-0.1698" y="1" relative="1" as="geometry">
            <mxPoint y="1" as="offset"/>
          </mxGeometry>
        </mxCell>
      </root>
    </mxGraphModel>
  </diagram>
</mxfile>
